<mxfile host="app.diagrams.net" agent="Mozilla/5.0 (Windows NT 10.0; Win64; x64) AppleWebKit/537.36 (KHTML, like Gecko) Chrome/133.0.0.0 Safari/537.36" version="26.0.16">
  <diagram name="第 1 页" id="QjlIj0iyaf9ogRQ0GuOx">
    <mxGraphModel dx="780" dy="444" grid="1" gridSize="10" guides="1" tooltips="1" connect="1" arrows="1" fold="1" page="1" pageScale="1" pageWidth="827" pageHeight="1169" math="1" shadow="0">
      <root>
        <mxCell id="0" />
        <mxCell id="1" parent="0" />
        <mxCell id="9NlLvZTU2Q5gZjpkGXMk-18" value="" style="edgeStyle=orthogonalEdgeStyle;rounded=0;orthogonalLoop=1;jettySize=auto;html=1;shape=flexArrow;fillColor=#dae8fc;strokeColor=#6c8ebf;sketch=1;curveFitting=1;jiggle=2;fontSize=12;" parent="1" source="9NlLvZTU2Q5gZjpkGXMk-1" target="9NlLvZTU2Q5gZjpkGXMk-16" edge="1">
          <mxGeometry relative="1" as="geometry" />
        </mxCell>
        <mxCell id="9NlLvZTU2Q5gZjpkGXMk-1" value="" style="rounded=0;whiteSpace=wrap;html=1;fillColor=#dae8fc;strokeColor=#6c8ebf;opacity=60;fontSize=12;sketch=1;curveFitting=1;jiggle=2;" parent="1" vertex="1">
          <mxGeometry x="40" y="310" width="170" height="210" as="geometry" />
        </mxCell>
        <mxCell id="9NlLvZTU2Q5gZjpkGXMk-2" value="" style="rounded=0;whiteSpace=wrap;html=1;fillColor=#A9C4EB;strokeColor=#6c8ebf;opacity=50;fontSize=12;sketch=1;curveFitting=1;jiggle=2;" parent="1" vertex="1">
          <mxGeometry x="50" y="330" width="130" height="110" as="geometry" />
        </mxCell>
        <mxCell id="9NlLvZTU2Q5gZjpkGXMk-3" value="" style="rounded=0;whiteSpace=wrap;html=1;strokeColor=#6c8ebf;align=center;verticalAlign=middle;fontFamily=Helvetica;fontSize=12;fillColor=#A9C4EB;opacity=50;sketch=1;curveFitting=1;jiggle=2;" parent="1" vertex="1">
          <mxGeometry x="50" y="455" width="130" height="60" as="geometry" />
        </mxCell>
        <mxCell id="9NlLvZTU2Q5gZjpkGXMk-6" value="&lt;span&gt;$$s_{DB}$$&lt;/span&gt;" style="rounded=1;whiteSpace=wrap;html=1;aspect=fixed;fillColor=#A9C4EB;strokeColor=#6c8ebf;fontSize=12;opacity=80;fontStyle=1;sketch=1;curveFitting=1;jiggle=2;" parent="1" vertex="1">
          <mxGeometry x="60" y="340" width="82.22" height="40" as="geometry" />
        </mxCell>
        <mxCell id="9NlLvZTU2Q5gZjpkGXMk-8" value="$$\mathbb{S}_{DB}$$" style="text;html=1;align=center;verticalAlign=middle;whiteSpace=wrap;rounded=0;fontSize=12;" parent="1" vertex="1">
          <mxGeometry x="170" y="310" width="50" height="20" as="geometry" />
        </mxCell>
        <mxCell id="9NlLvZTU2Q5gZjpkGXMk-9" value="$$S_{DB}$$" style="text;html=1;align=center;verticalAlign=middle;whiteSpace=wrap;rounded=0;fontSize=12;" parent="1" vertex="1">
          <mxGeometry x="135" y="330" width="60" height="30" as="geometry" />
        </mxCell>
        <mxCell id="9NlLvZTU2Q5gZjpkGXMk-10" value="$$S_{DB}$$" style="text;html=1;align=center;verticalAlign=middle;whiteSpace=wrap;rounded=0;fontSize=12;" parent="1" vertex="1">
          <mxGeometry x="135" y="470" width="45" height="28" as="geometry" />
        </mxCell>
        <mxCell id="9NlLvZTU2Q5gZjpkGXMk-16" value="" style="sketch=1;pointerEvents=1;shadow=0;dashed=0;html=1;strokeColor=#6c8ebf;labelPosition=center;verticalLabelPosition=bottom;verticalAlign=top;outlineConnect=0;align=center;shape=mxgraph.office.concepts.folder;fillColor=#dae8fc;fontSize=12;curveFitting=1;jiggle=2;opacity=60;" parent="1" vertex="1">
          <mxGeometry x="260" y="310" width="150" height="210" as="geometry" />
        </mxCell>
        <mxCell id="9NlLvZTU2Q5gZjpkGXMk-20" value="" style="whiteSpace=wrap;html=1;shape=mxgraph.basic.document;fillColor=#A9C4EB;strokeColor=#6c8ebf;sketch=1;curveFitting=1;jiggle=2;opacity=60;fontSize=12;" parent="1" vertex="1">
          <mxGeometry x="270" y="360" width="130" height="60" as="geometry" />
        </mxCell>
        <mxCell id="9NlLvZTU2Q5gZjpkGXMk-21" value="" style="whiteSpace=wrap;html=1;shape=mxgraph.basic.document;fillColor=#A9C4EB;strokeColor=#6c8ebf;sketch=1;curveFitting=1;jiggle=2;opacity=60;fontSize=12;" parent="1" vertex="1">
          <mxGeometry x="270" y="450" width="130" height="60" as="geometry" />
        </mxCell>
        <mxCell id="9NlLvZTU2Q5gZjpkGXMk-26" value="形式化定义" style="text;html=1;align=center;verticalAlign=middle;whiteSpace=wrap;rounded=0;fontSize=12;" parent="1" vertex="1">
          <mxGeometry x="82.5" y="525" width="65" height="25" as="geometry" />
        </mxCell>
        <mxCell id="9NlLvZTU2Q5gZjpkGXMk-27" value="DWF仓库" style="text;html=1;align=center;verticalAlign=middle;whiteSpace=wrap;rounded=0;fontSize=12;" parent="1" vertex="1">
          <mxGeometry x="350" y="310" width="60" height="30" as="geometry" />
        </mxCell>
        <mxCell id="9NlLvZTU2Q5gZjpkGXMk-28" value="代码文件" style="text;html=1;align=center;verticalAlign=middle;whiteSpace=wrap;rounded=0;fontSize=12;" parent="1" vertex="1">
          <mxGeometry x="340" y="381" width="60" height="19" as="geometry" />
        </mxCell>
        <mxCell id="9NlLvZTU2Q5gZjpkGXMk-30" value="代码片段" style="text;html=1;align=center;verticalAlign=middle;whiteSpace=wrap;rounded=0;fontSize=12;" parent="1" vertex="1">
          <mxGeometry x="340" y="467" width="60" height="30" as="geometry" />
        </mxCell>
        <mxCell id="9NlLvZTU2Q5gZjpkGXMk-31" value="&lt;span style=&quot;text-wrap-mode: nowrap;&quot;&gt;DML&lt;/span&gt;" style="text;html=1;align=center;verticalAlign=middle;whiteSpace=wrap;rounded=0;fontSize=12;" parent="1" vertex="1">
          <mxGeometry x="300" y="525" width="70" height="20" as="geometry" />
        </mxCell>
        <mxCell id="RlLqFGo3u1AkYRw1-O9Y-4" value="原生SQL" style="text;html=1;align=center;verticalAlign=middle;whiteSpace=wrap;rounded=1;fontSize=12;fontStyle=0;textShadow=0;fillColor=#dae8fc;strokeColor=#6c8ebf;sketch=1;curveFitting=1;jiggle=2;" parent="1" vertex="1">
          <mxGeometry x="280" y="473.25" width="60" height="17.5" as="geometry" />
        </mxCell>
        <mxCell id="RlLqFGo3u1AkYRw1-O9Y-6" value="&lt;span&gt;$$s_{DB}$$&lt;/span&gt;" style="rounded=1;whiteSpace=wrap;html=1;aspect=fixed;fillColor=#A9C4EB;strokeColor=#6c8ebf;fontSize=12;opacity=80;fontStyle=1;sketch=1;curveFitting=1;jiggle=2;" parent="1" vertex="1">
          <mxGeometry x="60" y="394" width="82.22" height="40" as="geometry" />
        </mxCell>
        <mxCell id="RlLqFGo3u1AkYRw1-O9Y-7" value="&lt;span&gt;$$s_{DB}$$&lt;/span&gt;" style="rounded=1;whiteSpace=wrap;html=1;aspect=fixed;fillColor=#A9C4EB;strokeColor=#6c8ebf;fontSize=12;opacity=80;fontStyle=1;sketch=1;curveFitting=1;jiggle=2;" parent="1" vertex="1">
          <mxGeometry x="60" y="467" width="82.22" height="40" as="geometry" />
        </mxCell>
        <mxCell id="RlLqFGo3u1AkYRw1-O9Y-8" value="" style="endArrow=none;dashed=1;html=1;dashPattern=1 3;strokeWidth=2;rounded=0;" parent="1" edge="1">
          <mxGeometry width="50" height="50" relative="1" as="geometry">
            <mxPoint x="440" y="530" as="sourcePoint" />
            <mxPoint x="440" y="300" as="targetPoint" />
          </mxGeometry>
        </mxCell>
        <mxCell id="RlLqFGo3u1AkYRw1-O9Y-11" value="" style="whiteSpace=wrap;html=1;shape=mxgraph.basic.document;fillColor=#D4E1F5;strokeColor=#6c8ebf;sketch=1;curveFitting=1;jiggle=2;opacity=60;fontSize=12;" parent="1" vertex="1">
          <mxGeometry x="470" y="310" width="140" height="210" as="geometry" />
        </mxCell>
        <mxCell id="RlLqFGo3u1AkYRw1-O9Y-12" value="&lt;span style=&quot;text-wrap-mode: nowrap;&quot;&gt;DDL&lt;/span&gt;" style="text;html=1;align=center;verticalAlign=middle;whiteSpace=wrap;rounded=0;fontSize=12;" parent="1" vertex="1">
          <mxGeometry x="505" y="525" width="70" height="20" as="geometry" />
        </mxCell>
        <mxCell id="RlLqFGo3u1AkYRw1-O9Y-13" value="数据库定义脚本" style="text;html=1;align=center;verticalAlign=middle;whiteSpace=wrap;rounded=0;" parent="1" vertex="1">
          <mxGeometry x="491" y="320" width="98" height="20" as="geometry" />
        </mxCell>
        <mxCell id="RlLqFGo3u1AkYRw1-O9Y-16" value="" style="rounded=1;whiteSpace=wrap;html=1;aspect=fixed;fillColor=#dae8fc;strokeColor=#6c8ebf;fontSize=12;opacity=60;fontStyle=1;sketch=1;curveFitting=1;jiggle=2;" parent="1" vertex="1">
          <mxGeometry x="477.63" y="350.81" width="124.75" height="60.69" as="geometry" />
        </mxCell>
        <mxCell id="RlLqFGo3u1AkYRw1-O9Y-17" value="表定义" style="text;html=1;align=center;verticalAlign=middle;whiteSpace=wrap;rounded=0;" parent="1" vertex="1">
          <mxGeometry x="550" y="370" width="47.55" height="30" as="geometry" />
        </mxCell>
        <mxCell id="RlLqFGo3u1AkYRw1-O9Y-18" value="create语句" style="text;html=1;align=center;verticalAlign=middle;whiteSpace=wrap;rounded=1;fillColor=#dae8fc;strokeColor=#6c8ebf;sketch=1;curveFitting=1;jiggle=2;opacity=70;" parent="1" vertex="1">
          <mxGeometry x="489" y="358" width="60" height="20" as="geometry" />
        </mxCell>
        <mxCell id="RlLqFGo3u1AkYRw1-O9Y-20" value="原生SQL" style="text;html=1;align=center;verticalAlign=middle;whiteSpace=wrap;rounded=1;fontSize=12;fontStyle=0;textShadow=0;fillColor=#dae8fc;strokeColor=#6c8ebf;sketch=1;curveFitting=1;jiggle=2;" parent="1" vertex="1">
          <mxGeometry x="280" y="366.25" width="60" height="17.5" as="geometry" />
        </mxCell>
        <mxCell id="RlLqFGo3u1AkYRw1-O9Y-21" value="原生SQL" style="text;html=1;align=center;verticalAlign=middle;whiteSpace=wrap;rounded=1;fontSize=12;fontStyle=0;textShadow=0;fillColor=#dae8fc;strokeColor=#6c8ebf;sketch=1;curveFitting=1;jiggle=2;" parent="1" vertex="1">
          <mxGeometry x="280" y="394" width="60" height="17.5" as="geometry" />
        </mxCell>
        <mxCell id="RlLqFGo3u1AkYRw1-O9Y-22" value="alter语句" style="text;html=1;align=center;verticalAlign=middle;whiteSpace=wrap;rounded=1;fillColor=#dae8fc;strokeColor=#6c8ebf;sketch=1;curveFitting=1;jiggle=2;opacity=70;" parent="1" vertex="1">
          <mxGeometry x="489" y="385.75" width="60" height="20" as="geometry" />
        </mxCell>
        <mxCell id="RlLqFGo3u1AkYRw1-O9Y-23" value="" style="rounded=1;whiteSpace=wrap;html=1;aspect=fixed;fillColor=#dae8fc;strokeColor=#6c8ebf;fontSize=12;opacity=60;fontStyle=1;sketch=1;curveFitting=1;jiggle=2;" parent="1" vertex="1">
          <mxGeometry x="473.63" y="440" width="132.37" height="64.4" as="geometry" />
        </mxCell>
        <mxCell id="RlLqFGo3u1AkYRw1-O9Y-24" value="存储过程定义" style="text;html=1;align=center;verticalAlign=middle;whiteSpace=wrap;rounded=0;" parent="1" vertex="1">
          <mxGeometry x="558.4499999999999" y="457.19" width="47.55" height="30" as="geometry" />
        </mxCell>
        <mxCell id="RlLqFGo3u1AkYRw1-O9Y-25" value="create procedure语句" style="text;html=1;align=center;verticalAlign=middle;whiteSpace=wrap;rounded=1;fillColor=#dae8fc;strokeColor=#6c8ebf;sketch=1;curveFitting=1;jiggle=2;opacity=70;" parent="1" vertex="1">
          <mxGeometry x="485.82" y="450" width="66.37" height="40.75" as="geometry" />
        </mxCell>
      </root>
    </mxGraphModel>
  </diagram>
</mxfile>
